<svg xmlns="http://www.w3.org/2000/svg" version="1.1" xmlns:xlink="http://www.w3.org/1999/xlink" xmlns:svgjs="http://svgjs.com/svgjs" width="1440" height="720" preserveAspectRatio="none" viewBox="0 0 1440 720"><g mask="url(&quot;#SvgjsMask4575&quot;)" fill="none"><rect width="1440" height="720" x="0" y="0" fill="url(#SvgjsLinearGradient4576)"></rect><g mask="url(&quot;#SvgjsMask4578&quot;)"><path d="M1147.5 365.5L1130.5 348.5L1113.5 331.5M892.5 348.5L875.5 331.5L858.5 331.5L841.5 331.5L824.5 331.5L807.5 331.5L790.5 331.5L773.5 331.5L756.5 331.5L739.5 331.5M875.5 348.5L858.5 365.5L841.5 382.5L824.5 382.5L807.5 382.5L790.5 365.5M1334.5 365.5L1317.5 365.5L1300.5 365.5L1283.5 365.5L1266.5 365.5L1249.5 365.5L1232.5 365.5L1215.5 365.5L1198.5 365.5L1181.5 365.5L1164.5 365.5L1147.5 382.5L1130.5 382.5L1113.5 382.5L1096.5 382.5L1079.5 382.5L1062.5 382.5M977.5 365.5L960.5 348.5L943.5 348.5L926.5 331.5M1096.5 365.5L1079.5 348.5L1062.5 348.5L1045.5 348.5L1028.5 348.5L1011.5 348.5L994.5 348.5L977.5 348.5M1028.5 365.5L1011.5 382.5L994.5 382.5L977.5 382.5M909.5 348.5L892.5 331.5L875.5 314.5L858.5 314.5L841.5 314.5M943.5 365.5L926.5 365.5L909.5 365.5L892.5 365.5L875.5 365.5L858.5 382.5L841.5 399.5L824.5 399.5M1453.5 365.5L1436.5 365.5L1419.5 365.5L1402.5 365.5L1385.5 365.5L1368.5 365.5L1351.5 365.5L1334.5 365.5L1317.5 348.5L1300.5 348.5L1283.5 348.5L1266.5 348.5L1249.5 348.5L1232.5 348.5L1215.5 348.5L1198.5 348.5L1181.5 348.5L1164.5 348.5L1147.5 365.5L1130.5 365.5L1113.5 365.5L1096.5 365.5L1079.5 365.5L1062.5 365.5L1045.5 365.5L1028.5 365.5L1011.5 365.5L994.5 365.5L977.5 365.5L960.5 365.5L943.5 365.5L926.5 348.5L909.5 348.5L892.5 348.5L875.5 348.5L858.5 348.5L841.5 348.5" stroke="url(#SvgjsLinearGradient4577)" stroke-width="2.83"></path><path d="M837.25 348.5 a4.25 4.25 0 1 0 8.5 0 a4.25 4.25 0 1 0 -8.5 0zM1109.25 331.5 a4.25 4.25 0 1 0 8.5 0 a4.25 4.25 0 1 0 -8.5 0zM735.25 331.5 a4.25 4.25 0 1 0 8.5 0 a4.25 4.25 0 1 0 -8.5 0zM786.25 365.5 a4.25 4.25 0 1 0 8.5 0 a4.25 4.25 0 1 0 -8.5 0zM1058.25 382.5 a4.25 4.25 0 1 0 8.5 0 a4.25 4.25 0 1 0 -8.5 0zM922.25 331.5 a4.25 4.25 0 1 0 8.5 0 a4.25 4.25 0 1 0 -8.5 0zM973.25 348.5 a4.25 4.25 0 1 0 8.5 0 a4.25 4.25 0 1 0 -8.5 0zM973.25 382.5 a4.25 4.25 0 1 0 8.5 0 a4.25 4.25 0 1 0 -8.5 0zM837.25 314.5 a4.25 4.25 0 1 0 8.5 0 a4.25 4.25 0 1 0 -8.5 0zM820.25 399.5 a4.25 4.25 0 1 0 8.5 0 a4.25 4.25 0 1 0 -8.5 0z" fill="url(#SvgjsLinearGradient4577)"></path><path d="M1011.5 280.5L994.5 297.5M994.5 280.5L977.5 263.5M1079.5 280.5L1062.5 297.5M960.5 263.5L943.5 280.5L926.5 280.5L909.5 280.5L892.5 280.5L875.5 280.5L858.5 280.5L841.5 280.5M1130.5 297.5L1113.5 314.5L1096.5 314.5L1079.5 314.5L1062.5 314.5L1045.5 314.5L1028.5 314.5L1011.5 331.5L994.5 331.5L977.5 331.5L960.5 331.5M1096.5 297.5L1079.5 297.5M1351.5 331.5L1334.5 348.5M1283.5 331.5L1266.5 314.5L1249.5 314.5L1232.5 314.5L1215.5 314.5M1453.5 348.5L1436.5 348.5L1419.5 348.5L1402.5 348.5L1385.5 348.5L1368.5 331.5L1351.5 331.5L1334.5 331.5L1317.5 331.5L1300.5 331.5L1283.5 331.5L1266.5 331.5L1249.5 331.5L1232.5 331.5L1215.5 331.5L1198.5 314.5L1181.5 314.5L1164.5 314.5L1147.5 314.5L1130.5 297.5L1113.5 297.5L1096.5 297.5L1079.5 280.5L1062.5 280.5L1045.5 280.5L1028.5 280.5L1011.5 280.5L994.5 280.5L977.5 280.5L960.5 263.5L943.5 263.5L926.5 263.5L909.5 263.5" stroke="url(#SvgjsLinearGradient4577)" stroke-width="2.83"></path><path d="M905.25 263.5 a4.25 4.25 0 1 0 8.5 0 a4.25 4.25 0 1 0 -8.5 0zM990.25 297.5 a4.25 4.25 0 1 0 8.5 0 a4.25 4.25 0 1 0 -8.5 0zM973.25 263.5 a4.25 4.25 0 1 0 8.5 0 a4.25 4.25 0 1 0 -8.5 0zM1058.25 297.5 a4.25 4.25 0 1 0 8.5 0 a4.25 4.25 0 1 0 -8.5 0zM837.25 280.5 a4.25 4.25 0 1 0 8.5 0 a4.25 4.25 0 1 0 -8.5 0zM956.25 331.5 a4.25 4.25 0 1 0 8.5 0 a4.25 4.25 0 1 0 -8.5 0zM1075.25 297.5 a4.25 4.25 0 1 0 8.5 0 a4.25 4.25 0 1 0 -8.5 0zM1330.25 348.5 a4.25 4.25 0 1 0 8.5 0 a4.25 4.25 0 1 0 -8.5 0zM1211.25 314.5 a4.25 4.25 0 1 0 8.5 0 a4.25 4.25 0 1 0 -8.5 0z" fill="url(#SvgjsLinearGradient4577)"></path><path d="M1266.5 399.5L1249.5 382.5M1368.5 399.5L1351.5 382.5L1334.5 382.5L1317.5 382.5M1317.5 399.5L1300.5 416.5M1232.5 399.5L1215.5 382.5L1198.5 382.5M1453.5 382.5L1436.5 382.5L1419.5 382.5L1402.5 382.5L1385.5 382.5L1368.5 399.5L1351.5 399.5L1334.5 399.5L1317.5 399.5L1300.5 399.5L1283.5 399.5L1266.5 399.5L1249.5 399.5L1232.5 399.5L1215.5 399.5L1198.5 399.5L1181.5 399.5" stroke="url(#SvgjsLinearGradient4577)" stroke-width="2.83"></path><path d="M1177.25 399.5 a4.25 4.25 0 1 0 8.5 0 a4.25 4.25 0 1 0 -8.5 0zM1245.25 382.5 a4.25 4.25 0 1 0 8.5 0 a4.25 4.25 0 1 0 -8.5 0zM1313.25 382.5 a4.25 4.25 0 1 0 8.5 0 a4.25 4.25 0 1 0 -8.5 0zM1296.25 416.5 a4.25 4.25 0 1 0 8.5 0 a4.25 4.25 0 1 0 -8.5 0zM1194.25 382.5 a4.25 4.25 0 1 0 8.5 0 a4.25 4.25 0 1 0 -8.5 0z" fill="url(#SvgjsLinearGradient4577)"></path><path d="M1198.5 297.5L1181.5 280.5L1164.5 280.5L1147.5 280.5M603.5 263.5L586.5 280.5L569.5 280.5L552.5 280.5L535.5 280.5L518.5 280.5L501.5 280.5L484.5 263.5L467.5 263.5L450.5 263.5M1317.5 314.5L1300.5 297.5M773.5 246.5L756.5 263.5L739.5 263.5L722.5 280.5L705.5 280.5L688.5 280.5L671.5 263.5L654.5 263.5L637.5 263.5L620.5 280.5L603.5 280.5L586.5 297.5L569.5 297.5L552.5 297.5L535.5 297.5M348.5 229.5L331.5 229.5M892.5 246.5L875.5 263.5L858.5 263.5L841.5 263.5L824.5 263.5L807.5 263.5L790.5 263.5L773.5 263.5L756.5 280.5M1011.5 263.5L994.5 263.5M450.5 229.5L433.5 246.5L416.5 246.5L399.5 246.5L382.5 246.5M705.5 246.5L688.5 229.5L671.5 229.5M552.5 263.5L535.5 246.5L518.5 246.5L501.5 246.5L484.5 229.5L467.5 212.5M1300.5 314.5L1283.5 314.5M790.5 246.5L773.5 229.5L756.5 229.5L739.5 229.5L722.5 229.5L705.5 229.5M858.5 246.5L841.5 229.5L824.5 229.5L807.5 229.5L790.5 229.5M637.5 246.5L620.5 246.5L603.5 246.5L586.5 246.5L569.5 246.5L552.5 246.5L535.5 229.5L518.5 229.5L501.5 229.5L484.5 212.5M926.5 246.5L909.5 229.5L892.5 229.5L875.5 229.5L858.5 229.5M977.5 246.5L960.5 229.5L943.5 229.5L926.5 229.5M722.5 246.5L705.5 263.5L688.5 263.5M1453.5 331.5L1436.5 331.5L1419.5 331.5L1402.5 331.5L1385.5 331.5L1368.5 314.5L1351.5 314.5L1334.5 314.5L1317.5 314.5L1300.5 314.5L1283.5 297.5L1266.5 297.5L1249.5 297.5L1232.5 297.5L1215.5 297.5L1198.5 297.5L1181.5 297.5L1164.5 297.5L1147.5 297.5L1130.5 280.5L1113.5 280.5L1096.5 280.5L1079.5 263.5L1062.5 263.5L1045.5 263.5L1028.5 263.5L1011.5 263.5L994.5 246.5L977.5 246.5L960.5 246.5L943.5 246.5L926.5 246.5L909.5 246.5L892.5 246.5L875.5 246.5L858.5 246.5L841.5 246.5L824.5 246.5L807.5 246.5L790.5 246.5L773.5 246.5L756.5 246.5L739.5 246.5L722.5 246.5L705.5 246.5L688.5 246.5L671.5 246.5L654.5 246.5L637.5 246.5L620.5 263.5L603.5 263.5L586.5 263.5L569.5 263.5L552.5 263.5L535.5 263.5L518.5 263.5L501.5 263.5L484.5 246.5L467.5 246.5L450.5 229.5L433.5 229.5L416.5 229.5L399.5 229.5L382.5 229.5L365.5 229.5L348.5 229.5L331.5 212.5L314.5 212.5" stroke="url(#SvgjsLinearGradient4577)" stroke-width="2.83"></path><path d="M310.25 212.5 a4.25 4.25 0 1 0 8.5 0 a4.25 4.25 0 1 0 -8.5 0zM1143.25 280.5 a4.25 4.25 0 1 0 8.5 0 a4.25 4.25 0 1 0 -8.5 0zM446.25 263.5 a4.25 4.25 0 1 0 8.5 0 a4.25 4.25 0 1 0 -8.5 0zM1296.25 297.5 a4.25 4.25 0 1 0 8.5 0 a4.25 4.25 0 1 0 -8.5 0zM531.25 297.5 a4.25 4.25 0 1 0 8.5 0 a4.25 4.25 0 1 0 -8.5 0zM327.25 229.5 a4.25 4.25 0 1 0 8.5 0 a4.25 4.25 0 1 0 -8.5 0zM752.25 280.5 a4.25 4.25 0 1 0 8.5 0 a4.25 4.25 0 1 0 -8.5 0zM990.25 263.5 a4.25 4.25 0 1 0 8.5 0 a4.25 4.25 0 1 0 -8.5 0zM378.25 246.5 a4.25 4.25 0 1 0 8.5 0 a4.25 4.25 0 1 0 -8.5 0zM667.25 229.5 a4.25 4.25 0 1 0 8.5 0 a4.25 4.25 0 1 0 -8.5 0zM463.25 212.5 a4.25 4.25 0 1 0 8.5 0 a4.25 4.25 0 1 0 -8.5 0zM1279.25 314.5 a4.25 4.25 0 1 0 8.5 0 a4.25 4.25 0 1 0 -8.5 0zM701.25 229.5 a4.25 4.25 0 1 0 8.5 0 a4.25 4.25 0 1 0 -8.5 0zM786.25 229.5 a4.25 4.25 0 1 0 8.5 0 a4.25 4.25 0 1 0 -8.5 0zM480.25 212.5 a4.25 4.25 0 1 0 8.5 0 a4.25 4.25 0 1 0 -8.5 0zM854.25 229.5 a4.25 4.25 0 1 0 8.5 0 a4.25 4.25 0 1 0 -8.5 0zM922.25 229.5 a4.25 4.25 0 1 0 8.5 0 a4.25 4.25 0 1 0 -8.5 0zM684.25 263.5 a4.25 4.25 0 1 0 8.5 0 a4.25 4.25 0 1 0 -8.5 0z" fill="url(#SvgjsLinearGradient4577)"></path><path d="M943.5 433.5L926.5 416.5L909.5 416.5L892.5 416.5L875.5 416.5M1164.5 416.5L1147.5 433.5L1130.5 433.5L1113.5 433.5L1096.5 433.5M1147.5 416.5L1130.5 399.5L1113.5 399.5L1096.5 399.5L1079.5 399.5M807.5 433.5L790.5 416.5L773.5 416.5L756.5 416.5L739.5 416.5M1232.5 416.5L1215.5 433.5M1266.5 416.5L1249.5 433.5L1232.5 433.5M858.5 433.5L841.5 450.5L824.5 450.5L807.5 450.5L790.5 450.5L773.5 450.5L756.5 433.5L739.5 433.5M1351.5 416.5L1334.5 416.5L1317.5 416.5M1198.5 416.5L1181.5 433.5L1164.5 433.5M960.5 450.5L943.5 450.5L926.5 450.5L909.5 450.5L892.5 450.5M1453.5 399.5L1436.5 399.5L1419.5 399.5L1402.5 399.5L1385.5 399.5L1368.5 416.5L1351.5 416.5L1334.5 433.5L1317.5 433.5L1300.5 433.5L1283.5 433.5L1266.5 416.5L1249.5 416.5L1232.5 416.5L1215.5 416.5L1198.5 416.5L1181.5 416.5L1164.5 416.5L1147.5 416.5L1130.5 416.5L1113.5 416.5L1096.5 416.5L1079.5 416.5L1062.5 416.5L1045.5 416.5L1028.5 433.5L1011.5 433.5L994.5 450.5L977.5 450.5L960.5 450.5L943.5 433.5L926.5 433.5L909.5 433.5L892.5 433.5L875.5 433.5L858.5 433.5L841.5 433.5L824.5 433.5L807.5 433.5L790.5 433.5" stroke="url(#SvgjsLinearGradient4577)" stroke-width="2.83"></path><path d="M786.25 433.5 a4.25 4.25 0 1 0 8.5 0 a4.25 4.25 0 1 0 -8.5 0zM871.25 416.5 a4.25 4.25 0 1 0 8.5 0 a4.25 4.25 0 1 0 -8.5 0zM1092.25 433.5 a4.25 4.25 0 1 0 8.5 0 a4.25 4.25 0 1 0 -8.5 0zM1075.25 399.5 a4.25 4.25 0 1 0 8.5 0 a4.25 4.25 0 1 0 -8.5 0zM735.25 416.5 a4.25 4.25 0 1 0 8.5 0 a4.25 4.25 0 1 0 -8.5 0zM1211.25 433.5 a4.25 4.25 0 1 0 8.5 0 a4.25 4.25 0 1 0 -8.5 0zM1228.25 433.5 a4.25 4.25 0 1 0 8.5 0 a4.25 4.25 0 1 0 -8.5 0zM735.25 433.5 a4.25 4.25 0 1 0 8.5 0 a4.25 4.25 0 1 0 -8.5 0zM1313.25 416.5 a4.25 4.25 0 1 0 8.5 0 a4.25 4.25 0 1 0 -8.5 0zM1160.25 433.5 a4.25 4.25 0 1 0 8.5 0 a4.25 4.25 0 1 0 -8.5 0zM888.25 450.5 a4.25 4.25 0 1 0 8.5 0 a4.25 4.25 0 1 0 -8.5 0z" fill="url(#SvgjsLinearGradient4577)"></path><path d="M637.5 212.5L620.5 229.5L603.5 229.5L586.5 229.5L569.5 229.5L552.5 229.5L535.5 212.5L518.5 212.5L501.5 212.5M722.5 212.5L705.5 195.5L688.5 195.5L671.5 195.5L654.5 195.5L637.5 195.5L620.5 195.5M1266.5 280.5L1249.5 263.5L1232.5 263.5M1232.5 280.5L1215.5 280.5L1198.5 280.5M994.5 229.5L977.5 229.5M654.5 212.5L637.5 229.5M1334.5 297.5L1317.5 297.5M1453.5 314.5L1436.5 314.5L1419.5 314.5L1402.5 314.5L1385.5 314.5L1368.5 297.5L1351.5 297.5L1334.5 297.5L1317.5 280.5L1300.5 280.5L1283.5 280.5L1266.5 280.5L1249.5 280.5L1232.5 280.5L1215.5 263.5L1198.5 263.5L1181.5 263.5L1164.5 263.5L1147.5 263.5L1130.5 263.5L1113.5 263.5L1096.5 263.5L1079.5 246.5L1062.5 246.5L1045.5 246.5L1028.5 246.5L1011.5 246.5L994.5 229.5L977.5 212.5L960.5 212.5L943.5 212.5L926.5 212.5L909.5 212.5L892.5 212.5L875.5 212.5L858.5 212.5L841.5 212.5L824.5 212.5L807.5 212.5L790.5 212.5L773.5 212.5L756.5 212.5L739.5 212.5L722.5 212.5L705.5 212.5L688.5 212.5L671.5 212.5L654.5 212.5L637.5 212.5L620.5 212.5" stroke="url(#SvgjsLinearGradient4577)" stroke-width="2.83"></path><path d="M616.25 212.5 a4.25 4.25 0 1 0 8.5 0 a4.25 4.25 0 1 0 -8.5 0zM497.25 212.5 a4.25 4.25 0 1 0 8.5 0 a4.25 4.25 0 1 0 -8.5 0zM616.25 195.5 a4.25 4.25 0 1 0 8.5 0 a4.25 4.25 0 1 0 -8.5 0zM1228.25 263.5 a4.25 4.25 0 1 0 8.5 0 a4.25 4.25 0 1 0 -8.5 0zM1194.25 280.5 a4.25 4.25 0 1 0 8.5 0 a4.25 4.25 0 1 0 -8.5 0zM973.25 229.5 a4.25 4.25 0 1 0 8.5 0 a4.25 4.25 0 1 0 -8.5 0zM633.25 229.5 a4.25 4.25 0 1 0 8.5 0 a4.25 4.25 0 1 0 -8.5 0zM1313.25 297.5 a4.25 4.25 0 1 0 8.5 0 a4.25 4.25 0 1 0 -8.5 0z" fill="url(#SvgjsLinearGradient4577)"></path><path d="M1045.5 467.5L1028.5 450.5M671.5 518.5L654.5 535.5L637.5 552.5L620.5 552.5L603.5 552.5M841.5 484.5L824.5 467.5L807.5 467.5L790.5 467.5L773.5 467.5L756.5 450.5L739.5 450.5M637.5 518.5L620.5 535.5M1419.5 416.5L1402.5 433.5L1385.5 433.5M1113.5 467.5L1096.5 450.5M909.5 484.5L892.5 467.5L875.5 467.5L858.5 467.5L841.5 467.5M824.5 484.5L807.5 484.5L790.5 484.5M705.5 518.5L688.5 535.5L671.5 535.5L654.5 552.5L637.5 569.5L620.5 586.5L603.5 586.5L586.5 586.5L569.5 586.5L552.5 569.5L535.5 552.5L518.5 535.5L501.5 535.5L484.5 535.5L467.5 535.5L450.5 535.5L433.5 535.5L416.5 535.5L399.5 535.5L382.5 535.5L365.5 535.5L348.5 535.5M739.5 518.5L722.5 535.5L705.5 535.5L688.5 552.5L671.5 552.5L654.5 569.5L637.5 586.5L620.5 603.5L603.5 620.5L586.5 620.5L569.5 620.5L552.5 620.5L535.5 637.5L518.5 637.5L501.5 637.5L484.5 654.5L467.5 654.5L450.5 654.5M654.5 518.5L637.5 501.5L620.5 501.5M1062.5 467.5L1045.5 450.5M1453.5 416.5L1436.5 416.5L1419.5 416.5L1402.5 416.5L1385.5 416.5L1368.5 433.5L1351.5 433.5L1334.5 450.5L1317.5 450.5L1300.5 450.5L1283.5 450.5L1266.5 450.5L1249.5 450.5L1232.5 450.5L1215.5 450.5L1198.5 450.5L1181.5 450.5L1164.5 450.5L1147.5 450.5L1130.5 450.5L1113.5 467.5L1096.5 467.5L1079.5 467.5L1062.5 467.5L1045.5 467.5L1028.5 467.5L1011.5 467.5L994.5 467.5L977.5 467.5L960.5 467.5L943.5 467.5L926.5 467.5L909.5 484.5L892.5 484.5L875.5 484.5L858.5 484.5L841.5 484.5L824.5 484.5L807.5 501.5L790.5 501.5L773.5 501.5L756.5 501.5L739.5 518.5L722.5 518.5L705.5 518.5L688.5 518.5L671.5 518.5L654.5 518.5L637.5 518.5L620.5 518.5" stroke="url(#SvgjsLinearGradient4577)" stroke-width="2.83"></path><path d="M616.25 518.5 a4.25 4.25 0 1 0 8.5 0 a4.25 4.25 0 1 0 -8.5 0zM1024.25 450.5 a4.25 4.25 0 1 0 8.5 0 a4.25 4.25 0 1 0 -8.5 0zM599.25 552.5 a4.25 4.25 0 1 0 8.5 0 a4.25 4.25 0 1 0 -8.5 0zM735.25 450.5 a4.25 4.25 0 1 0 8.5 0 a4.25 4.25 0 1 0 -8.5 0zM616.25 535.5 a4.25 4.25 0 1 0 8.5 0 a4.25 4.25 0 1 0 -8.5 0zM1381.25 433.5 a4.25 4.25 0 1 0 8.5 0 a4.25 4.25 0 1 0 -8.5 0zM1092.25 450.5 a4.25 4.25 0 1 0 8.5 0 a4.25 4.25 0 1 0 -8.5 0zM837.25 467.5 a4.25 4.25 0 1 0 8.5 0 a4.25 4.25 0 1 0 -8.5 0zM786.25 484.5 a4.25 4.25 0 1 0 8.5 0 a4.25 4.25 0 1 0 -8.5 0zM344.25 535.5 a4.25 4.25 0 1 0 8.5 0 a4.25 4.25 0 1 0 -8.5 0zM446.25 654.5 a4.25 4.25 0 1 0 8.5 0 a4.25 4.25 0 1 0 -8.5 0zM616.25 501.5 a4.25 4.25 0 1 0 8.5 0 a4.25 4.25 0 1 0 -8.5 0zM1041.25 450.5 a4.25 4.25 0 1 0 8.5 0 a4.25 4.25 0 1 0 -8.5 0z" fill="url(#SvgjsLinearGradient4577)"></path><path d="M1113.5 246.5L1096.5 229.5M807.5 195.5L790.5 178.5L773.5 178.5M688.5 178.5L671.5 161.5L654.5 161.5L637.5 161.5M1283.5 263.5L1266.5 263.5M739.5 195.5L722.5 195.5M586.5 178.5L569.5 195.5L552.5 212.5M569.5 178.5L552.5 178.5M705.5 178.5L688.5 161.5M1147.5 246.5L1130.5 229.5M603.5 178.5L586.5 195.5L569.5 212.5M1453.5 297.5L1436.5 297.5L1419.5 297.5L1402.5 297.5L1385.5 297.5L1368.5 280.5L1351.5 280.5L1334.5 280.5L1317.5 263.5L1300.5 263.5L1283.5 263.5L1266.5 246.5L1249.5 246.5L1232.5 246.5L1215.5 246.5L1198.5 246.5L1181.5 246.5L1164.5 246.5L1147.5 246.5L1130.5 246.5L1113.5 246.5L1096.5 246.5L1079.5 229.5L1062.5 229.5L1045.5 229.5L1028.5 229.5L1011.5 229.5L994.5 212.5L977.5 195.5L960.5 195.5L943.5 195.5L926.5 195.5L909.5 195.5L892.5 195.5L875.5 195.5L858.5 195.5L841.5 195.5L824.5 195.5L807.5 195.5L790.5 195.5L773.5 195.5L756.5 195.5L739.5 195.5L722.5 178.5L705.5 178.5L688.5 178.5L671.5 178.5L654.5 178.5L637.5 178.5L620.5 178.5L603.5 178.5L586.5 178.5L569.5 178.5L552.5 195.5" stroke="url(#SvgjsLinearGradient4577)" stroke-width="2.83"></path><path d="M548.25 195.5 a4.25 4.25 0 1 0 8.5 0 a4.25 4.25 0 1 0 -8.5 0zM1092.25 229.5 a4.25 4.25 0 1 0 8.5 0 a4.25 4.25 0 1 0 -8.5 0zM769.25 178.5 a4.25 4.25 0 1 0 8.5 0 a4.25 4.25 0 1 0 -8.5 0zM633.25 161.5 a4.25 4.25 0 1 0 8.5 0 a4.25 4.25 0 1 0 -8.5 0zM1262.25 263.5 a4.25 4.25 0 1 0 8.5 0 a4.25 4.25 0 1 0 -8.5 0zM718.25 195.5 a4.25 4.25 0 1 0 8.5 0 a4.25 4.25 0 1 0 -8.5 0zM548.25 212.5 a4.25 4.25 0 1 0 8.5 0 a4.25 4.25 0 1 0 -8.5 0zM548.25 178.5 a4.25 4.25 0 1 0 8.5 0 a4.25 4.25 0 1 0 -8.5 0zM684.25 161.5 a4.25 4.25 0 1 0 8.5 0 a4.25 4.25 0 1 0 -8.5 0zM1126.25 229.5 a4.25 4.25 0 1 0 8.5 0 a4.25 4.25 0 1 0 -8.5 0zM565.25 212.5 a4.25 4.25 0 1 0 8.5 0 a4.25 4.25 0 1 0 -8.5 0z" fill="url(#SvgjsLinearGradient4577)"></path><path d="M1453.5 433.5L1436.5 433.5" stroke="url(#SvgjsLinearGradient4577)" stroke-width="2.83"></path><path d="M1432.25 433.5 a4.25 4.25 0 1 0 8.5 0 a4.25 4.25 0 1 0 -8.5 0z" fill="url(#SvgjsLinearGradient4577)"></path><path d="M773.5 161.5L756.5 161.5L739.5 161.5M603.5 161.5L586.5 144.5L569.5 144.5L552.5 144.5L535.5 144.5L518.5 144.5L501.5 144.5L484.5 144.5L467.5 144.5L450.5 144.5L433.5 161.5L416.5 161.5L399.5 161.5M1300.5 246.5L1283.5 246.5M365.5 212.5L348.5 195.5L331.5 195.5M501.5 195.5L484.5 178.5L467.5 178.5L450.5 178.5L433.5 178.5L416.5 178.5L399.5 178.5L382.5 195.5L365.5 195.5L348.5 178.5L331.5 161.5L314.5 161.5L297.5 161.5L280.5 161.5L263.5 161.5M671.5 144.5L654.5 127.5L637.5 127.5M722.5 161.5L705.5 161.5M1164.5 212.5L1147.5 229.5M824.5 178.5L807.5 178.5M552.5 161.5L535.5 161.5L518.5 161.5L501.5 161.5L484.5 161.5L467.5 161.5L450.5 161.5M1181.5 229.5L1164.5 229.5M467.5 195.5L450.5 195.5L433.5 195.5L416.5 195.5L399.5 195.5M620.5 161.5L603.5 144.5L586.5 127.5L569.5 127.5L552.5 127.5L535.5 127.5L518.5 127.5L501.5 127.5L484.5 127.5L467.5 127.5L450.5 127.5L433.5 127.5L416.5 127.5L399.5 144.5M518.5 178.5L501.5 178.5M637.5 144.5L620.5 144.5L603.5 127.5L586.5 110.5L569.5 110.5L552.5 110.5L535.5 110.5L518.5 110.5L501.5 110.5L484.5 110.5L467.5 110.5L450.5 110.5L433.5 110.5L416.5 110.5L399.5 110.5M1453.5 280.5L1436.5 280.5L1419.5 280.5L1402.5 280.5L1385.5 280.5L1368.5 263.5L1351.5 263.5L1334.5 263.5L1317.5 246.5L1300.5 246.5L1283.5 229.5L1266.5 229.5L1249.5 229.5L1232.5 229.5L1215.5 229.5L1198.5 229.5L1181.5 229.5L1164.5 212.5L1147.5 212.5L1130.5 212.5L1113.5 212.5L1096.5 212.5L1079.5 212.5L1062.5 212.5L1045.5 212.5L1028.5 212.5L1011.5 212.5L994.5 195.5L977.5 178.5L960.5 178.5L943.5 178.5L926.5 178.5L909.5 178.5L892.5 178.5L875.5 178.5L858.5 178.5L841.5 178.5L824.5 178.5L807.5 161.5L790.5 161.5L773.5 161.5L756.5 178.5L739.5 178.5L722.5 161.5L705.5 144.5L688.5 144.5L671.5 144.5L654.5 144.5L637.5 144.5L620.5 161.5L603.5 161.5L586.5 161.5L569.5 161.5L552.5 161.5L535.5 178.5L518.5 178.5L501.5 195.5L484.5 195.5L467.5 195.5L450.5 212.5L433.5 212.5L416.5 212.5L399.5 212.5L382.5 212.5L365.5 212.5L348.5 212.5" stroke="url(#SvgjsLinearGradient4577)" stroke-width="2.83"></path><path d="M344.25 212.5 a4.25 4.25 0 1 0 8.5 0 a4.25 4.25 0 1 0 -8.5 0zM735.25 161.5 a4.25 4.25 0 1 0 8.5 0 a4.25 4.25 0 1 0 -8.5 0zM395.25 161.5 a4.25 4.25 0 1 0 8.5 0 a4.25 4.25 0 1 0 -8.5 0zM1279.25 246.5 a4.25 4.25 0 1 0 8.5 0 a4.25 4.25 0 1 0 -8.5 0zM327.25 195.5 a4.25 4.25 0 1 0 8.5 0 a4.25 4.25 0 1 0 -8.5 0zM259.25 161.5 a4.25 4.25 0 1 0 8.5 0 a4.25 4.25 0 1 0 -8.5 0zM633.25 127.5 a4.25 4.25 0 1 0 8.5 0 a4.25 4.25 0 1 0 -8.5 0zM701.25 161.5 a4.25 4.25 0 1 0 8.5 0 a4.25 4.25 0 1 0 -8.5 0zM1143.25 229.5 a4.25 4.25 0 1 0 8.5 0 a4.25 4.25 0 1 0 -8.5 0zM803.25 178.5 a4.25 4.25 0 1 0 8.5 0 a4.25 4.25 0 1 0 -8.5 0zM446.25 161.5 a4.25 4.25 0 1 0 8.5 0 a4.25 4.25 0 1 0 -8.5 0zM1160.25 229.5 a4.25 4.25 0 1 0 8.5 0 a4.25 4.25 0 1 0 -8.5 0zM395.25 195.5 a4.25 4.25 0 1 0 8.5 0 a4.25 4.25 0 1 0 -8.5 0zM395.25 144.5 a4.25 4.25 0 1 0 8.5 0 a4.25 4.25 0 1 0 -8.5 0zM497.25 178.5 a4.25 4.25 0 1 0 8.5 0 a4.25 4.25 0 1 0 -8.5 0zM395.25 110.5 a4.25 4.25 0 1 0 8.5 0 a4.25 4.25 0 1 0 -8.5 0z" fill="url(#SvgjsLinearGradient4577)"></path><path d="M977.5 484.5L960.5 501.5L943.5 518.5L926.5 518.5M1249.5 467.5L1232.5 484.5L1215.5 484.5M909.5 501.5L892.5 518.5L875.5 518.5L858.5 518.5L841.5 518.5M790.5 535.5L773.5 552.5M1266.5 467.5L1249.5 484.5M1147.5 484.5L1130.5 467.5M994.5 484.5L977.5 501.5L960.5 518.5M1402.5 450.5L1385.5 467.5L1368.5 467.5L1351.5 467.5M1419.5 450.5L1402.5 467.5M1164.5 484.5L1147.5 467.5M1453.5 450.5L1436.5 450.5L1419.5 450.5L1402.5 450.5L1385.5 450.5L1368.5 450.5L1351.5 450.5L1334.5 467.5L1317.5 467.5L1300.5 467.5L1283.5 467.5L1266.5 467.5L1249.5 467.5L1232.5 467.5L1215.5 467.5L1198.5 467.5L1181.5 467.5L1164.5 484.5L1147.5 484.5L1130.5 484.5L1113.5 484.5L1096.5 484.5L1079.5 484.5L1062.5 484.5L1045.5 484.5L1028.5 484.5L1011.5 484.5L994.5 484.5L977.5 484.5L960.5 484.5L943.5 484.5L926.5 484.5L909.5 501.5L892.5 501.5L875.5 501.5L858.5 501.5L841.5 501.5L824.5 501.5L807.5 518.5L790.5 535.5L773.5 535.5" stroke="url(#SvgjsLinearGradient4577)" stroke-width="2.83"></path><path d="M769.25 535.5 a4.25 4.25 0 1 0 8.5 0 a4.25 4.25 0 1 0 -8.5 0zM922.25 518.5 a4.25 4.25 0 1 0 8.5 0 a4.25 4.25 0 1 0 -8.5 0zM1211.25 484.5 a4.25 4.25 0 1 0 8.5 0 a4.25 4.25 0 1 0 -8.5 0zM837.25 518.5 a4.25 4.25 0 1 0 8.5 0 a4.25 4.25 0 1 0 -8.5 0zM769.25 552.5 a4.25 4.25 0 1 0 8.5 0 a4.25 4.25 0 1 0 -8.5 0zM1245.25 484.5 a4.25 4.25 0 1 0 8.5 0 a4.25 4.25 0 1 0 -8.5 0zM1126.25 467.5 a4.25 4.25 0 1 0 8.5 0 a4.25 4.25 0 1 0 -8.5 0zM956.25 518.5 a4.25 4.25 0 1 0 8.5 0 a4.25 4.25 0 1 0 -8.5 0zM1347.25 467.5 a4.25 4.25 0 1 0 8.5 0 a4.25 4.25 0 1 0 -8.5 0zM1398.25 467.5 a4.25 4.25 0 1 0 8.5 0 a4.25 4.25 0 1 0 -8.5 0zM1143.25 467.5 a4.25 4.25 0 1 0 8.5 0 a4.25 4.25 0 1 0 -8.5 0z" fill="url(#SvgjsLinearGradient4577)"></path><path d="M960.5 161.5L943.5 144.5M1402.5 263.5L1385.5 263.5M1453.5 263.5L1436.5 263.5L1419.5 263.5L1402.5 263.5L1385.5 246.5L1368.5 246.5L1351.5 246.5L1334.5 246.5L1317.5 229.5L1300.5 229.5L1283.5 212.5L1266.5 212.5L1249.5 212.5L1232.5 212.5L1215.5 212.5L1198.5 212.5L1181.5 212.5L1164.5 195.5L1147.5 195.5L1130.5 195.5L1113.5 195.5L1096.5 195.5L1079.5 195.5L1062.5 195.5L1045.5 195.5L1028.5 195.5L1011.5 195.5L994.5 178.5L977.5 161.5L960.5 161.5L943.5 161.5L926.5 161.5L909.5 161.5L892.5 161.5L875.5 161.5L858.5 161.5L841.5 161.5L824.5 161.5L807.5 144.5L790.5 144.5" stroke="url(#SvgjsLinearGradient4577)" stroke-width="2.83"></path><path d="M786.25 144.5 a4.25 4.25 0 1 0 8.5 0 a4.25 4.25 0 1 0 -8.5 0zM939.25 144.5 a4.25 4.25 0 1 0 8.5 0 a4.25 4.25 0 1 0 -8.5 0zM1381.25 263.5 a4.25 4.25 0 1 0 8.5 0 a4.25 4.25 0 1 0 -8.5 0z" fill="url(#SvgjsLinearGradient4577)"></path><path d="M1453.5 467.5L1436.5 467.5" stroke="url(#SvgjsLinearGradient4577)" stroke-width="2.83"></path><path d="M1432.25 467.5 a4.25 4.25 0 1 0 8.5 0 a4.25 4.25 0 1 0 -8.5 0z" fill="url(#SvgjsLinearGradient4577)"></path><path d="M1453.5 246.5L1436.5 246.5L1419.5 246.5L1402.5 246.5L1385.5 229.5L1368.5 229.5L1351.5 229.5L1334.5 229.5L1317.5 212.5L1300.5 212.5L1283.5 195.5L1266.5 195.5L1249.5 195.5L1232.5 195.5L1215.5 195.5L1198.5 195.5L1181.5 195.5L1164.5 178.5L1147.5 178.5L1130.5 178.5L1113.5 178.5L1096.5 178.5L1079.5 178.5L1062.5 178.5L1045.5 178.5L1028.5 178.5L1011.5 178.5L994.5 161.5" stroke="url(#SvgjsLinearGradient4577)" stroke-width="2.83"></path><path d="M990.25 161.5 a4.25 4.25 0 1 0 8.5 0 a4.25 4.25 0 1 0 -8.5 0z" fill="url(#SvgjsLinearGradient4577)"></path><path d="M1283.5 484.5L1266.5 484.5M1368.5 484.5L1351.5 501.5M1215.5 501.5L1198.5 501.5L1181.5 501.5M1062.5 501.5L1045.5 518.5L1028.5 518.5L1011.5 518.5M1453.5 484.5L1436.5 484.5L1419.5 484.5L1402.5 484.5L1385.5 484.5L1368.5 484.5L1351.5 484.5L1334.5 484.5L1317.5 484.5L1300.5 484.5L1283.5 484.5L1266.5 501.5L1249.5 501.5L1232.5 501.5L1215.5 501.5L1198.5 484.5L1181.5 484.5L1164.5 501.5L1147.5 501.5L1130.5 501.5L1113.5 501.5L1096.5 501.5L1079.5 501.5L1062.5 501.5L1045.5 501.5" stroke="url(#SvgjsLinearGradient4577)" stroke-width="2.83"></path><path d="M1041.25 501.5 a4.25 4.25 0 1 0 8.5 0 a4.25 4.25 0 1 0 -8.5 0zM1262.25 484.5 a4.25 4.25 0 1 0 8.5 0 a4.25 4.25 0 1 0 -8.5 0zM1347.25 501.5 a4.25 4.25 0 1 0 8.5 0 a4.25 4.25 0 1 0 -8.5 0zM1177.25 501.5 a4.25 4.25 0 1 0 8.5 0 a4.25 4.25 0 1 0 -8.5 0zM1007.25 518.5 a4.25 4.25 0 1 0 8.5 0 a4.25 4.25 0 1 0 -8.5 0z" fill="url(#SvgjsLinearGradient4577)"></path><path d="M1453.5 229.5L1436.5 229.5L1419.5 229.5L1402.5 229.5L1385.5 212.5L1368.5 212.5L1351.5 212.5L1334.5 212.5L1317.5 195.5L1300.5 195.5L1283.5 178.5L1266.5 178.5L1249.5 178.5L1232.5 178.5L1215.5 178.5L1198.5 178.5L1181.5 178.5" stroke="url(#SvgjsLinearGradient4577)" stroke-width="2.83"></path><path d="M1177.25 178.5 a4.25 4.25 0 1 0 8.5 0 a4.25 4.25 0 1 0 -8.5 0z" fill="url(#SvgjsLinearGradient4577)"></path><path d="M1130.5 518.5L1113.5 535.5L1096.5 535.5L1079.5 535.5L1062.5 552.5L1045.5 552.5L1028.5 569.5L1011.5 569.5L994.5 569.5L977.5 569.5L960.5 552.5M909.5 535.5L892.5 552.5L875.5 552.5L858.5 552.5L841.5 569.5L824.5 569.5L807.5 569.5L790.5 569.5M994.5 535.5L977.5 552.5M1181.5 518.5L1164.5 535.5L1147.5 535.5L1130.5 535.5L1113.5 552.5M1079.5 518.5L1062.5 518.5M1011.5 535.5L994.5 552.5M1028.5 535.5L1011.5 552.5M1385.5 501.5L1368.5 501.5M1453.5 501.5L1436.5 501.5L1419.5 501.5L1402.5 501.5L1385.5 501.5L1368.5 518.5L1351.5 518.5L1334.5 501.5L1317.5 501.5L1300.5 501.5L1283.5 501.5L1266.5 518.5L1249.5 518.5L1232.5 518.5L1215.5 518.5L1198.5 518.5L1181.5 518.5L1164.5 518.5L1147.5 518.5L1130.5 518.5L1113.5 518.5L1096.5 518.5L1079.5 518.5L1062.5 535.5L1045.5 535.5L1028.5 535.5L1011.5 535.5L994.5 535.5L977.5 535.5L960.5 535.5L943.5 535.5L926.5 535.5L909.5 535.5L892.5 535.5" stroke="url(#SvgjsLinearGradient4577)" stroke-width="2.83"></path><path d="M888.25 535.5 a4.25 4.25 0 1 0 8.5 0 a4.25 4.25 0 1 0 -8.5 0zM956.25 552.5 a4.25 4.25 0 1 0 8.5 0 a4.25 4.25 0 1 0 -8.5 0zM786.25 569.5 a4.25 4.25 0 1 0 8.5 0 a4.25 4.25 0 1 0 -8.5 0zM973.25 552.5 a4.25 4.25 0 1 0 8.5 0 a4.25 4.25 0 1 0 -8.5 0zM1109.25 552.5 a4.25 4.25 0 1 0 8.5 0 a4.25 4.25 0 1 0 -8.5 0zM1058.25 518.5 a4.25 4.25 0 1 0 8.5 0 a4.25 4.25 0 1 0 -8.5 0zM990.25 552.5 a4.25 4.25 0 1 0 8.5 0 a4.25 4.25 0 1 0 -8.5 0zM1007.25 552.5 a4.25 4.25 0 1 0 8.5 0 a4.25 4.25 0 1 0 -8.5 0zM1364.25 501.5 a4.25 4.25 0 1 0 8.5 0 a4.25 4.25 0 1 0 -8.5 0z" fill="url(#SvgjsLinearGradient4577)"></path><path d="M722.5 127.5L705.5 110.5L688.5 110.5L671.5 93.5M943.5 127.5L926.5 127.5M637.5 110.5L620.5 93.5L603.5 93.5L586.5 93.5L569.5 93.5M909.5 144.5L892.5 127.5L875.5 127.5L858.5 110.5L841.5 110.5L824.5 110.5L807.5 110.5L790.5 93.5L773.5 93.5L756.5 93.5L739.5 93.5L722.5 93.5L705.5 93.5L688.5 93.5L671.5 76.5L654.5 76.5L637.5 76.5L620.5 76.5M841.5 144.5L824.5 127.5M654.5 110.5L637.5 93.5M977.5 144.5L960.5 144.5M688.5 127.5L671.5 127.5M739.5 127.5L722.5 144.5M756.5 127.5L739.5 110.5L722.5 110.5M773.5 127.5L756.5 144.5M790.5 127.5L773.5 110.5L756.5 110.5M1453.5 212.5L1436.5 212.5L1419.5 212.5L1402.5 212.5L1385.5 195.5L1368.5 195.5L1351.5 195.5L1334.5 195.5L1317.5 178.5L1300.5 178.5L1283.5 161.5L1266.5 161.5L1249.5 161.5L1232.5 161.5L1215.5 161.5L1198.5 161.5L1181.5 161.5L1164.5 161.5L1147.5 161.5L1130.5 161.5L1113.5 161.5L1096.5 161.5L1079.5 161.5L1062.5 161.5L1045.5 161.5L1028.5 161.5L1011.5 161.5L994.5 144.5L977.5 144.5L960.5 127.5L943.5 127.5L926.5 144.5L909.5 144.5L892.5 144.5L875.5 144.5L858.5 144.5L841.5 144.5L824.5 144.5L807.5 127.5L790.5 127.5L773.5 127.5L756.5 127.5L739.5 127.5L722.5 127.5L705.5 127.5L688.5 127.5L671.5 110.5L654.5 110.5L637.5 110.5L620.5 110.5" stroke="url(#SvgjsLinearGradient4577)" stroke-width="2.83"></path><path d="M616.25 110.5 a4.25 4.25 0 1 0 8.5 0 a4.25 4.25 0 1 0 -8.5 0zM667.25 93.5 a4.25 4.25 0 1 0 8.5 0 a4.25 4.25 0 1 0 -8.5 0zM922.25 127.5 a4.25 4.25 0 1 0 8.5 0 a4.25 4.25 0 1 0 -8.5 0zM565.25 93.5 a4.25 4.25 0 1 0 8.5 0 a4.25 4.25 0 1 0 -8.5 0zM616.25 76.5 a4.25 4.25 0 1 0 8.5 0 a4.25 4.25 0 1 0 -8.5 0zM820.25 127.5 a4.25 4.25 0 1 0 8.5 0 a4.25 4.25 0 1 0 -8.5 0zM633.25 93.5 a4.25 4.25 0 1 0 8.5 0 a4.25 4.25 0 1 0 -8.5 0zM956.25 144.5 a4.25 4.25 0 1 0 8.5 0 a4.25 4.25 0 1 0 -8.5 0zM667.25 127.5 a4.25 4.25 0 1 0 8.5 0 a4.25 4.25 0 1 0 -8.5 0zM718.25 144.5 a4.25 4.25 0 1 0 8.5 0 a4.25 4.25 0 1 0 -8.5 0zM718.25 110.5 a4.25 4.25 0 1 0 8.5 0 a4.25 4.25 0 1 0 -8.5 0zM752.25 144.5 a4.25 4.25 0 1 0 8.5 0 a4.25 4.25 0 1 0 -8.5 0zM752.25 110.5 a4.25 4.25 0 1 0 8.5 0 a4.25 4.25 0 1 0 -8.5 0z" fill="url(#SvgjsLinearGradient4577)"></path><path d="M1215.5 535.5L1198.5 552.5M1368.5 535.5L1351.5 552.5M1419.5 518.5L1402.5 535.5M1249.5 535.5L1232.5 552.5L1215.5 552.5L1198.5 569.5L1181.5 569.5M1453.5 518.5L1436.5 518.5L1419.5 518.5L1402.5 518.5L1385.5 518.5L1368.5 535.5L1351.5 535.5L1334.5 535.5L1317.5 535.5L1300.5 535.5L1283.5 535.5L1266.5 535.5L1249.5 535.5L1232.5 535.5L1215.5 535.5L1198.5 535.5" stroke="url(#SvgjsLinearGradient4577)" stroke-width="2.83"></path><path d="M1194.25 535.5 a4.25 4.25 0 1 0 8.5 0 a4.25 4.25 0 1 0 -8.5 0zM1194.25 552.5 a4.25 4.25 0 1 0 8.5 0 a4.25 4.25 0 1 0 -8.5 0zM1347.25 552.5 a4.25 4.25 0 1 0 8.5 0 a4.25 4.25 0 1 0 -8.5 0zM1398.25 535.5 a4.25 4.25 0 1 0 8.5 0 a4.25 4.25 0 1 0 -8.5 0zM1177.25 569.5 a4.25 4.25 0 1 0 8.5 0 a4.25 4.25 0 1 0 -8.5 0z" fill="url(#SvgjsLinearGradient4577)"></path><path d="M1266.5 144.5L1249.5 127.5M1028.5 144.5L1011.5 127.5M1385.5 178.5L1368.5 161.5L1351.5 161.5L1334.5 161.5L1317.5 144.5M1436.5 195.5L1419.5 178.5L1402.5 178.5L1385.5 161.5L1368.5 144.5L1351.5 144.5L1334.5 144.5M1283.5 144.5L1266.5 127.5L1249.5 110.5M1130.5 144.5L1113.5 127.5L1096.5 127.5M1079.5 144.5L1062.5 127.5M1453.5 195.5L1436.5 195.5L1419.5 195.5L1402.5 195.5L1385.5 178.5L1368.5 178.5L1351.5 178.5L1334.5 178.5L1317.5 161.5L1300.5 161.5L1283.5 144.5L1266.5 144.5L1249.5 144.5L1232.5 144.5L1215.5 144.5L1198.5 144.5L1181.5 144.5L1164.5 144.5L1147.5 144.5L1130.5 144.5L1113.5 144.5L1096.5 144.5L1079.5 144.5L1062.5 144.5L1045.5 144.5L1028.5 144.5L1011.5 144.5L994.5 127.5L977.5 127.5" stroke="url(#SvgjsLinearGradient4577)" stroke-width="2.83"></path><path d="M973.25 127.5 a4.25 4.25 0 1 0 8.5 0 a4.25 4.25 0 1 0 -8.5 0zM1245.25 127.5 a4.25 4.25 0 1 0 8.5 0 a4.25 4.25 0 1 0 -8.5 0zM1007.25 127.5 a4.25 4.25 0 1 0 8.5 0 a4.25 4.25 0 1 0 -8.5 0zM1313.25 144.5 a4.25 4.25 0 1 0 8.5 0 a4.25 4.25 0 1 0 -8.5 0zM1330.25 144.5 a4.25 4.25 0 1 0 8.5 0 a4.25 4.25 0 1 0 -8.5 0zM1245.25 110.5 a4.25 4.25 0 1 0 8.5 0 a4.25 4.25 0 1 0 -8.5 0zM1092.25 127.5 a4.25 4.25 0 1 0 8.5 0 a4.25 4.25 0 1 0 -8.5 0zM1058.25 127.5 a4.25 4.25 0 1 0 8.5 0 a4.25 4.25 0 1 0 -8.5 0z" fill="url(#SvgjsLinearGradient4577)"></path></g></g><defs><mask id="SvgjsMask4575"><rect width="1440" height="720" fill="#ffffff"></rect></mask><linearGradient x1="0%" y1="50%" x2="100%" y2="50%" gradientUnits="userSpaceOnUse" id="SvgjsLinearGradient4576"><stop stop-color="rgba(14, 42, 68, 1)" offset="0.08"></stop><stop stop-color="rgba(0, 0, 0, 1)" offset="1"></stop></linearGradient><linearGradient x1="1440" y1="360" x2="230.4000000000001" y2="360" gradientUnits="userSpaceOnUse" id="SvgjsLinearGradient4577"><stop stop-color="rgba(58, 124, 195, 1)" offset="0"></stop><stop stop-color="rgba(169, 0, 29, 1)" offset="0.76"></stop></linearGradient><mask id="SvgjsMask4578"><rect width="1440" height="720" fill="white"></rect><path d="M839.37 348.5 a2.13 2.13 0 1 0 4.26 0 a2.13 2.13 0 1 0 -4.26 0zM1111.37 331.5 a2.13 2.13 0 1 0 4.26 0 a2.13 2.13 0 1 0 -4.26 0zM737.37 331.5 a2.13 2.13 0 1 0 4.26 0 a2.13 2.13 0 1 0 -4.26 0zM788.37 365.5 a2.13 2.13 0 1 0 4.26 0 a2.13 2.13 0 1 0 -4.26 0zM1060.37 382.5 a2.13 2.13 0 1 0 4.26 0 a2.13 2.13 0 1 0 -4.26 0zM924.37 331.5 a2.13 2.13 0 1 0 4.26 0 a2.13 2.13 0 1 0 -4.26 0zM975.37 348.5 a2.13 2.13 0 1 0 4.26 0 a2.13 2.13 0 1 0 -4.26 0zM975.37 382.5 a2.13 2.13 0 1 0 4.26 0 a2.13 2.13 0 1 0 -4.26 0zM839.37 314.5 a2.13 2.13 0 1 0 4.26 0 a2.13 2.13 0 1 0 -4.26 0zM822.37 399.5 a2.13 2.13 0 1 0 4.26 0 a2.13 2.13 0 1 0 -4.26 0z" fill="black"></path><path d="M907.37 263.5 a2.13 2.13 0 1 0 4.26 0 a2.13 2.13 0 1 0 -4.26 0zM992.37 297.5 a2.13 2.13 0 1 0 4.26 0 a2.13 2.13 0 1 0 -4.26 0zM975.37 263.5 a2.13 2.13 0 1 0 4.26 0 a2.13 2.13 0 1 0 -4.26 0zM1060.37 297.5 a2.13 2.13 0 1 0 4.26 0 a2.13 2.13 0 1 0 -4.26 0zM839.37 280.5 a2.13 2.13 0 1 0 4.26 0 a2.13 2.13 0 1 0 -4.26 0zM958.37 331.5 a2.13 2.13 0 1 0 4.26 0 a2.13 2.13 0 1 0 -4.26 0zM1077.37 297.5 a2.13 2.13 0 1 0 4.26 0 a2.13 2.13 0 1 0 -4.26 0zM1332.37 348.5 a2.13 2.13 0 1 0 4.26 0 a2.13 2.13 0 1 0 -4.26 0zM1213.37 314.5 a2.13 2.13 0 1 0 4.26 0 a2.13 2.13 0 1 0 -4.26 0z" fill="black"></path><path d="M1179.37 399.5 a2.13 2.13 0 1 0 4.26 0 a2.13 2.13 0 1 0 -4.26 0zM1247.37 382.5 a2.13 2.13 0 1 0 4.26 0 a2.13 2.13 0 1 0 -4.26 0zM1315.37 382.5 a2.13 2.13 0 1 0 4.26 0 a2.13 2.13 0 1 0 -4.26 0zM1298.37 416.5 a2.13 2.13 0 1 0 4.26 0 a2.13 2.13 0 1 0 -4.26 0zM1196.37 382.5 a2.13 2.13 0 1 0 4.26 0 a2.13 2.13 0 1 0 -4.26 0z" fill="black"></path><path d="M312.37 212.5 a2.13 2.13 0 1 0 4.26 0 a2.13 2.13 0 1 0 -4.26 0zM1145.37 280.5 a2.13 2.13 0 1 0 4.26 0 a2.13 2.13 0 1 0 -4.26 0zM448.37 263.5 a2.13 2.13 0 1 0 4.26 0 a2.13 2.13 0 1 0 -4.26 0zM1298.37 297.5 a2.13 2.13 0 1 0 4.26 0 a2.13 2.13 0 1 0 -4.26 0zM533.37 297.5 a2.13 2.13 0 1 0 4.26 0 a2.13 2.13 0 1 0 -4.26 0zM329.37 229.5 a2.13 2.13 0 1 0 4.26 0 a2.13 2.13 0 1 0 -4.26 0zM754.37 280.5 a2.13 2.13 0 1 0 4.26 0 a2.13 2.13 0 1 0 -4.26 0zM992.37 263.5 a2.13 2.13 0 1 0 4.26 0 a2.13 2.13 0 1 0 -4.26 0zM380.37 246.5 a2.13 2.13 0 1 0 4.26 0 a2.13 2.13 0 1 0 -4.26 0zM669.37 229.5 a2.13 2.13 0 1 0 4.26 0 a2.13 2.13 0 1 0 -4.26 0zM465.37 212.5 a2.13 2.13 0 1 0 4.26 0 a2.13 2.13 0 1 0 -4.26 0zM1281.37 314.5 a2.13 2.13 0 1 0 4.26 0 a2.13 2.13 0 1 0 -4.26 0zM703.37 229.5 a2.13 2.13 0 1 0 4.26 0 a2.13 2.13 0 1 0 -4.26 0zM788.37 229.5 a2.13 2.13 0 1 0 4.26 0 a2.13 2.13 0 1 0 -4.26 0zM482.37 212.5 a2.13 2.13 0 1 0 4.26 0 a2.13 2.13 0 1 0 -4.26 0zM856.37 229.5 a2.13 2.13 0 1 0 4.26 0 a2.13 2.13 0 1 0 -4.26 0zM924.37 229.5 a2.13 2.13 0 1 0 4.26 0 a2.13 2.13 0 1 0 -4.26 0zM686.37 263.5 a2.13 2.13 0 1 0 4.26 0 a2.13 2.13 0 1 0 -4.26 0z" fill="black"></path><path d="M788.37 433.5 a2.13 2.13 0 1 0 4.26 0 a2.13 2.13 0 1 0 -4.26 0zM873.37 416.5 a2.13 2.13 0 1 0 4.26 0 a2.13 2.13 0 1 0 -4.26 0zM1094.37 433.5 a2.13 2.13 0 1 0 4.26 0 a2.13 2.13 0 1 0 -4.26 0zM1077.37 399.5 a2.13 2.13 0 1 0 4.26 0 a2.13 2.13 0 1 0 -4.26 0zM737.37 416.5 a2.13 2.13 0 1 0 4.26 0 a2.13 2.13 0 1 0 -4.26 0zM1213.37 433.5 a2.13 2.13 0 1 0 4.26 0 a2.13 2.13 0 1 0 -4.26 0zM1230.37 433.5 a2.13 2.13 0 1 0 4.26 0 a2.13 2.13 0 1 0 -4.26 0zM737.37 433.5 a2.13 2.13 0 1 0 4.26 0 a2.13 2.13 0 1 0 -4.26 0zM1315.37 416.5 a2.13 2.13 0 1 0 4.26 0 a2.13 2.13 0 1 0 -4.26 0zM1162.37 433.5 a2.13 2.13 0 1 0 4.26 0 a2.13 2.13 0 1 0 -4.26 0zM890.37 450.5 a2.13 2.13 0 1 0 4.26 0 a2.13 2.13 0 1 0 -4.26 0z" fill="black"></path><path d="M618.37 212.5 a2.13 2.13 0 1 0 4.26 0 a2.13 2.13 0 1 0 -4.26 0zM499.37 212.5 a2.13 2.13 0 1 0 4.26 0 a2.13 2.13 0 1 0 -4.26 0zM618.37 195.5 a2.13 2.13 0 1 0 4.26 0 a2.13 2.13 0 1 0 -4.26 0zM1230.37 263.5 a2.13 2.13 0 1 0 4.26 0 a2.13 2.13 0 1 0 -4.26 0zM1196.37 280.5 a2.13 2.13 0 1 0 4.26 0 a2.13 2.13 0 1 0 -4.26 0zM975.37 229.5 a2.13 2.13 0 1 0 4.26 0 a2.13 2.13 0 1 0 -4.26 0zM635.37 229.5 a2.13 2.13 0 1 0 4.26 0 a2.13 2.13 0 1 0 -4.26 0zM1315.37 297.5 a2.13 2.13 0 1 0 4.26 0 a2.13 2.13 0 1 0 -4.26 0z" fill="black"></path><path d="M618.37 518.5 a2.13 2.13 0 1 0 4.26 0 a2.13 2.13 0 1 0 -4.26 0zM1026.37 450.5 a2.13 2.13 0 1 0 4.26 0 a2.13 2.13 0 1 0 -4.26 0zM601.37 552.5 a2.13 2.13 0 1 0 4.26 0 a2.13 2.13 0 1 0 -4.26 0zM737.37 450.5 a2.13 2.13 0 1 0 4.26 0 a2.13 2.13 0 1 0 -4.26 0zM618.37 535.5 a2.13 2.13 0 1 0 4.26 0 a2.13 2.13 0 1 0 -4.26 0zM1383.37 433.5 a2.13 2.13 0 1 0 4.26 0 a2.13 2.13 0 1 0 -4.26 0zM1094.37 450.5 a2.13 2.13 0 1 0 4.26 0 a2.13 2.13 0 1 0 -4.26 0zM839.37 467.5 a2.13 2.13 0 1 0 4.26 0 a2.13 2.13 0 1 0 -4.26 0zM788.37 484.5 a2.13 2.13 0 1 0 4.26 0 a2.13 2.13 0 1 0 -4.26 0zM346.37 535.5 a2.13 2.13 0 1 0 4.26 0 a2.13 2.13 0 1 0 -4.26 0zM448.37 654.5 a2.13 2.13 0 1 0 4.26 0 a2.13 2.13 0 1 0 -4.26 0zM618.37 501.5 a2.13 2.13 0 1 0 4.26 0 a2.13 2.13 0 1 0 -4.26 0zM1043.37 450.5 a2.13 2.13 0 1 0 4.26 0 a2.13 2.13 0 1 0 -4.26 0z" fill="black"></path><path d="M550.37 195.5 a2.13 2.13 0 1 0 4.26 0 a2.13 2.13 0 1 0 -4.26 0zM1094.37 229.5 a2.13 2.13 0 1 0 4.26 0 a2.13 2.13 0 1 0 -4.26 0zM771.37 178.5 a2.13 2.13 0 1 0 4.26 0 a2.13 2.13 0 1 0 -4.26 0zM635.37 161.5 a2.13 2.13 0 1 0 4.26 0 a2.13 2.13 0 1 0 -4.26 0zM1264.37 263.5 a2.13 2.13 0 1 0 4.26 0 a2.13 2.13 0 1 0 -4.26 0zM720.37 195.5 a2.13 2.13 0 1 0 4.26 0 a2.13 2.13 0 1 0 -4.26 0zM550.37 212.5 a2.13 2.13 0 1 0 4.26 0 a2.13 2.13 0 1 0 -4.26 0zM550.37 178.5 a2.13 2.13 0 1 0 4.26 0 a2.13 2.13 0 1 0 -4.26 0zM686.37 161.5 a2.13 2.13 0 1 0 4.26 0 a2.13 2.13 0 1 0 -4.26 0zM1128.37 229.5 a2.13 2.13 0 1 0 4.26 0 a2.13 2.13 0 1 0 -4.26 0zM567.37 212.5 a2.13 2.13 0 1 0 4.26 0 a2.13 2.13 0 1 0 -4.26 0z" fill="black"></path><path d="M1434.37 433.5 a2.13 2.13 0 1 0 4.26 0 a2.13 2.13 0 1 0 -4.26 0z" fill="black"></path><path d="M346.37 212.5 a2.13 2.13 0 1 0 4.26 0 a2.13 2.13 0 1 0 -4.26 0zM737.37 161.5 a2.13 2.13 0 1 0 4.26 0 a2.13 2.13 0 1 0 -4.26 0zM397.37 161.5 a2.13 2.13 0 1 0 4.26 0 a2.13 2.13 0 1 0 -4.26 0zM1281.37 246.5 a2.13 2.13 0 1 0 4.26 0 a2.13 2.13 0 1 0 -4.26 0zM329.37 195.5 a2.13 2.13 0 1 0 4.26 0 a2.13 2.13 0 1 0 -4.26 0zM261.37 161.5 a2.13 2.13 0 1 0 4.26 0 a2.13 2.13 0 1 0 -4.26 0zM635.37 127.5 a2.13 2.13 0 1 0 4.26 0 a2.13 2.13 0 1 0 -4.26 0zM703.37 161.5 a2.13 2.13 0 1 0 4.26 0 a2.13 2.13 0 1 0 -4.26 0zM1145.37 229.5 a2.13 2.13 0 1 0 4.26 0 a2.13 2.13 0 1 0 -4.26 0zM805.37 178.5 a2.13 2.13 0 1 0 4.26 0 a2.13 2.13 0 1 0 -4.26 0zM448.37 161.5 a2.13 2.13 0 1 0 4.26 0 a2.13 2.13 0 1 0 -4.26 0zM1162.37 229.5 a2.13 2.13 0 1 0 4.26 0 a2.13 2.13 0 1 0 -4.26 0zM397.37 195.5 a2.13 2.13 0 1 0 4.26 0 a2.13 2.13 0 1 0 -4.26 0zM397.37 144.5 a2.13 2.13 0 1 0 4.26 0 a2.13 2.13 0 1 0 -4.26 0zM499.37 178.5 a2.13 2.13 0 1 0 4.26 0 a2.13 2.13 0 1 0 -4.26 0zM397.37 110.5 a2.13 2.13 0 1 0 4.26 0 a2.13 2.13 0 1 0 -4.26 0z" fill="black"></path><path d="M771.37 535.5 a2.13 2.13 0 1 0 4.26 0 a2.13 2.13 0 1 0 -4.26 0zM924.37 518.5 a2.13 2.13 0 1 0 4.26 0 a2.13 2.13 0 1 0 -4.26 0zM1213.37 484.5 a2.13 2.13 0 1 0 4.26 0 a2.13 2.13 0 1 0 -4.26 0zM839.37 518.5 a2.13 2.13 0 1 0 4.26 0 a2.13 2.13 0 1 0 -4.26 0zM771.37 552.5 a2.13 2.13 0 1 0 4.26 0 a2.13 2.13 0 1 0 -4.26 0zM1247.37 484.5 a2.13 2.13 0 1 0 4.26 0 a2.13 2.13 0 1 0 -4.26 0zM1128.37 467.5 a2.13 2.13 0 1 0 4.26 0 a2.13 2.13 0 1 0 -4.26 0zM958.37 518.5 a2.13 2.13 0 1 0 4.26 0 a2.13 2.13 0 1 0 -4.26 0zM1349.37 467.5 a2.13 2.13 0 1 0 4.26 0 a2.13 2.13 0 1 0 -4.26 0zM1400.37 467.5 a2.13 2.13 0 1 0 4.26 0 a2.13 2.13 0 1 0 -4.26 0zM1145.37 467.5 a2.13 2.13 0 1 0 4.26 0 a2.13 2.13 0 1 0 -4.26 0z" fill="black"></path><path d="M788.37 144.5 a2.13 2.13 0 1 0 4.26 0 a2.13 2.13 0 1 0 -4.26 0zM941.37 144.5 a2.13 2.13 0 1 0 4.26 0 a2.13 2.13 0 1 0 -4.26 0zM1383.37 263.5 a2.13 2.13 0 1 0 4.26 0 a2.13 2.13 0 1 0 -4.26 0z" fill="black"></path><path d="M1434.37 467.5 a2.13 2.13 0 1 0 4.26 0 a2.13 2.13 0 1 0 -4.26 0z" fill="black"></path><path d="M992.37 161.5 a2.13 2.13 0 1 0 4.26 0 a2.13 2.13 0 1 0 -4.26 0z" fill="black"></path><path d="M1043.37 501.5 a2.13 2.13 0 1 0 4.26 0 a2.13 2.13 0 1 0 -4.26 0zM1264.37 484.5 a2.13 2.13 0 1 0 4.26 0 a2.13 2.13 0 1 0 -4.26 0zM1349.37 501.5 a2.13 2.13 0 1 0 4.26 0 a2.13 2.13 0 1 0 -4.26 0zM1179.37 501.5 a2.13 2.13 0 1 0 4.26 0 a2.13 2.13 0 1 0 -4.26 0zM1009.37 518.5 a2.13 2.13 0 1 0 4.26 0 a2.13 2.13 0 1 0 -4.26 0z" fill="black"></path><path d="M1179.37 178.5 a2.13 2.13 0 1 0 4.26 0 a2.13 2.13 0 1 0 -4.26 0z" fill="black"></path><path d="M890.37 535.5 a2.13 2.13 0 1 0 4.26 0 a2.13 2.13 0 1 0 -4.26 0zM958.37 552.5 a2.13 2.13 0 1 0 4.26 0 a2.13 2.13 0 1 0 -4.26 0zM788.37 569.5 a2.13 2.13 0 1 0 4.26 0 a2.13 2.13 0 1 0 -4.26 0zM975.37 552.5 a2.13 2.13 0 1 0 4.26 0 a2.13 2.13 0 1 0 -4.26 0zM1111.37 552.5 a2.13 2.13 0 1 0 4.26 0 a2.13 2.13 0 1 0 -4.26 0zM1060.37 518.5 a2.13 2.13 0 1 0 4.26 0 a2.13 2.13 0 1 0 -4.26 0zM992.37 552.5 a2.13 2.13 0 1 0 4.26 0 a2.13 2.13 0 1 0 -4.26 0zM1009.37 552.5 a2.13 2.13 0 1 0 4.26 0 a2.13 2.13 0 1 0 -4.26 0zM1366.37 501.5 a2.13 2.13 0 1 0 4.26 0 a2.13 2.13 0 1 0 -4.26 0z" fill="black"></path><path d="M618.37 110.5 a2.13 2.13 0 1 0 4.26 0 a2.13 2.13 0 1 0 -4.26 0zM669.37 93.5 a2.13 2.13 0 1 0 4.26 0 a2.13 2.13 0 1 0 -4.26 0zM924.37 127.5 a2.13 2.13 0 1 0 4.26 0 a2.13 2.13 0 1 0 -4.26 0zM567.37 93.5 a2.13 2.13 0 1 0 4.26 0 a2.13 2.13 0 1 0 -4.26 0zM618.37 76.5 a2.13 2.13 0 1 0 4.26 0 a2.13 2.13 0 1 0 -4.26 0zM822.37 127.5 a2.13 2.13 0 1 0 4.26 0 a2.13 2.13 0 1 0 -4.26 0zM635.37 93.5 a2.13 2.13 0 1 0 4.26 0 a2.13 2.13 0 1 0 -4.26 0zM958.37 144.5 a2.13 2.13 0 1 0 4.26 0 a2.13 2.13 0 1 0 -4.26 0zM669.37 127.5 a2.13 2.13 0 1 0 4.26 0 a2.13 2.13 0 1 0 -4.26 0zM720.37 144.5 a2.13 2.13 0 1 0 4.26 0 a2.13 2.13 0 1 0 -4.26 0zM720.37 110.5 a2.13 2.13 0 1 0 4.26 0 a2.13 2.13 0 1 0 -4.26 0zM754.37 144.5 a2.13 2.13 0 1 0 4.26 0 a2.13 2.13 0 1 0 -4.26 0zM754.37 110.5 a2.13 2.13 0 1 0 4.26 0 a2.13 2.13 0 1 0 -4.26 0z" fill="black"></path><path d="M1196.37 535.5 a2.13 2.13 0 1 0 4.26 0 a2.13 2.13 0 1 0 -4.26 0zM1196.37 552.5 a2.13 2.13 0 1 0 4.26 0 a2.13 2.13 0 1 0 -4.26 0zM1349.37 552.5 a2.13 2.13 0 1 0 4.26 0 a2.13 2.13 0 1 0 -4.26 0zM1400.37 535.5 a2.13 2.13 0 1 0 4.26 0 a2.13 2.13 0 1 0 -4.26 0zM1179.37 569.5 a2.13 2.13 0 1 0 4.26 0 a2.13 2.13 0 1 0 -4.26 0z" fill="black"></path><path d="M975.37 127.5 a2.13 2.13 0 1 0 4.26 0 a2.13 2.13 0 1 0 -4.26 0zM1247.37 127.5 a2.13 2.13 0 1 0 4.26 0 a2.13 2.13 0 1 0 -4.26 0zM1009.37 127.5 a2.13 2.13 0 1 0 4.26 0 a2.13 2.13 0 1 0 -4.26 0zM1315.37 144.5 a2.13 2.13 0 1 0 4.26 0 a2.13 2.13 0 1 0 -4.26 0zM1332.37 144.5 a2.13 2.13 0 1 0 4.26 0 a2.13 2.13 0 1 0 -4.26 0zM1247.37 110.5 a2.13 2.13 0 1 0 4.26 0 a2.13 2.13 0 1 0 -4.26 0zM1094.37 127.5 a2.13 2.13 0 1 0 4.26 0 a2.13 2.13 0 1 0 -4.26 0zM1060.37 127.5 a2.13 2.13 0 1 0 4.26 0 a2.13 2.13 0 1 0 -4.26 0z" fill="black"></path></mask></defs></svg>